#!OML:ASF E:\emotionWalksFemale\Project 1\Capture day 1\Session 1\Female1.ASF
:FULLY-SPECIFIED
:DEGREES
107
root 7.99707 15.2791 38.0473 -173.292 -1.15229 -179.734
lowerback 8.06266 -0.401563 -2.51181
upperback -4.05808 -0.82229 0.849735
thorax -8.79097 -0.247908 2.44694
lowerneck -3.88091 -1.93159 -4.46816
upperneck -0.566181 -2.32414 7.6249
head 0.657066 -1.03655 3.19149
rclavicle -1.60394e-014 1.39149e-015
rhumerus -39.2551 5.34243 -88.3581
rradius 32.2839
rwrist 17.5858
rhand -2.67376 -53.8576
rfingers 7.12502
rthumb 23.027 -82.502
lclavicle -1.60394e-014 1.39149e-015
lhumerus -40.1361 -9.64005 94.5024
lradius 37.7126
lwrist -11.1664
lhand -3.50961 -35.0387
lfingers 7.12502
lthumb 22.2248 -6.29647
rfemur -27.0134 18.4708 20.3393
rtibia 25.9128
rfoot -14.2292 -28.6415
rtoes 17.241
lfemur 8.0246 -14.5305 -28.6249
ltibia 15.4324
lfoot -17.8563 12.7295
ltoes -27.9755
108
root 8.01988 15.2766 37.9308 -174.04 -1.15943 -179.614
lowerback 8.4039 -0.389302 -2.43717
upperback -3.80996 -0.792593 0.804193
thorax -8.72387 -0.237029 2.35353
lowerneck -3.78438 -2.00244 -4.46548
upperneck -0.473836 -2.42578 7.7903
head 0.679423 -1.08543 3.24623
rclavicle 3.62612e-015 -5.73835e-015
rhumerus -39.4955 5.63471 -88.7354
rradius 32.5914
rwrist 16.7524
rhand -2.99252 -54.0878
rfingers 7.12502
rthumb 22.7211 -82.77
lclavicle 3.62612e-015 -5.73835e-015
lhumerus -40.3155 -10.1878 94.5724
lradius 37.6796
lwrist -10.9381
lhand -3.85351 -34.9464
lfingers 7.12502
lthumb 21.8946 -6.16524
rfemur -25.6354 18.7706 20.9913
rtibia 25.9147
rfoot -13.9027 -28.7058
rtoes 17.7141
lfemur 8.88444 -13.9934 -28.5414
ltibia 16.1865
lfoot -17.3851 12.4577
ltoes -29.6443
109
root 8.04135 15.2979 37.8583 -173.012 -0.790211 -179.695
lowerback 7.72135 -0.286232 -2.65887
upperback -4.18983 -0.693894 0.760135
thorax -8.74198 -0.183462 2.41161
lowerneck -3.78269 -1.99501 -4.38103
upperneck -0.352856 -2.42648 7.7927
head 0.716415 -1.08465 3.23093
rclavicle -7.23739e-015 -3.72721e-017
rhumerus -39.5997 5.89765 -88.9043
rradius 32.7223
rwrist 16.6536
rhand -2.71404 -53.8369
rfingers 7.12502
rthumb 22.9884 -82.4861
lclavicle -7.23739e-015 -3.72721e-017
lhumerus -40.3301 -10.3095 94.5345
lradius 37.4045
lwrist -11.314
lhand -4.1402 -34.6567
lfingers 7.12502
lthumb 21.6193 -5.84363
rfemur -26.6082 18.4276 20.7959
rtibia 25.8327
rfoot -12.2907 -28.1405
rtoes 14.841
lfemur 7.38664 -13.1819 -28.1495
ltibia 17.0568
lfoot -16.8708 11.805
ltoes -29.8453
110
root 8.07143 15.3024 37.7429 -173.378 -1.4405 -179.576
lowerback 7.70946 -0.4918 -2.63947
upperback -4.00729 -0.950541 0.833443
thorax -8.51954 -0.309547 2.5134
lowerneck -3.88003 -2.04 -4.35677
upperneck -0.220759 -2.49591 7.69473
head 0.778026 -1.11888 3.19048
rclavicle 2.86529e-015 -9.81499e-016
rhumerus -39.474 6.14385 -88.9012
rradius 32.6569
rwrist 17.1353
rhand -2.5401 -53.2517
rfingers 7.12502
rthumb 23.1553 -81.88
lclavicle 2.86529e-015 -9.81499e-016
lhumerus -40.2013 -10.3046 94.5259
lradius 36.9946
lwrist -12.0939
lhand -4.573 -34.3953
lfingers 7.12502
lthumb 21.2036 -5.53493
rfemur -25.5454 18.561 21.3011
rtibia 25.7507
rfoot -12.2829 -28.834
rtoes 14.9086
lfemur 7.60339 -12.5886 -27.6072
ltibia 18.0901
lfoot -16.6607 10.4757
ltoes -29.6022
111
root 8.09193 15.3101 37.6493 -173.219 -1.43338 -179.436
lowerback 7.5049 -0.478163 -2.51987
upperback -4.04021 -0.913867 0.883147
thorax -8.43821 -0.299752 2.4901
lowerneck -3.83035 -2.11752 -4.51727
upperneck -0.24314 -2.59759 7.67995
head 0.771427 -1.1731 3.21391
rclavicle 7.20129e-015 2.99419e-015
rhumerus -39.4216 6.56393 -88.9768
rradius 32.7008
rwrist 17.2011
rhand -2.78113 -53.0199
rfingers 7.12502
rthumb 22.924 -81.6771
lclavicle 7.20129e-015 2.99419e-015
lhumerus -40.053 -10.4086 94.6147
lradius 36.7293
lwrist -12.4433
lhand -5.19044 -34.3741
lfingers 7.12502
lthumb 20.6104 -5.44829
rfemur -25.2426 18.3449 21.671
rtibia 25.5539
rfoot -12.72 -28.2844
rtoes 16.846
lfemur 6.97088 -11.7045 -27.0945
ltibia 19.391
lfoot -16.2884 9.30401
ltoes -28.5514
112
root 8.12246 15.3155 37.5651 -173.225 -1.19462 -179.516
lowerback 7.61683 -0.400178 -2.8699
upperback -4.05072 -0.849884 0.895482
thorax -8.51623 -0.24622 2.69349
lowerneck -3.72881 -2.15076 -4.63655
upperneck -0.314036 -2.63865 7.69965
head 0.736175 -1.19706 3.24317
rclavicle -3.54784e-015 -5.04416e-015
rhumerus -39.3953 7.23929 -89.3167
rradius 32.8408
rwrist 16.609
rhand -2.90152 -53.403
rfingers 7.12502
rthumb 22.8085 -82.0745
lclavicle -3.54784e-015 -5.04416e-015
lhumerus -39.8345 -10.2113 94.3906
lradius 36.8117
lwrist -12.0641
lhand -3.50747 -34.1223
lfingers 7.12502
lthumb 22.2269 -5.38033
rfemur -24.7839 18.3136 21.864
rtibia 25.3105
rfoot -13.3565 -27.5599
rtoes 18.5125
lfemur 6.41467 -10.4969 -26.8208
ltibia 20.7677
lfoot -15.7509 8.15819
ltoes -27.882
113
root 8.14807 15.3244 37.4548 -173.307 -1.59098 -179.334
lowerback 7.43769 -0.550568 -2.70751
upperback -4.00592 -1.0263 0.91409
thorax -8.35207 -0.344617 2.64287
lowerneck -3.6327 -2.14311 -4.60052
upperneck -0.339969 -2.63033 7.73512
head 0.710439 -1.19409 3.24934
rclavicle -6.66705e-015 6.31141e-015
rhumerus -39.5725 7.71257 -89.7147
rradius 33.0737
rwrist 16.2039
rhand -3.01273 -53.4478
rfingers 7.12502
rthumb 22.7017 -82.1324
lclavicle -6.66705e-015 6.31141e-015
lhumerus -39.8652 -9.94459 94.0351
lradius 36.6581
lwrist -12.9571
lhand -3.53246 -34.8855
lfingers 7.12502
lthumb 22.2029 -6.1407
rfemur -24.0152 18.4811 22.3298
rtibia 25.0305
rfoot -13.7374 -27.8821
rtoes 20.3561
lfemur 5.97475 -9.63995 -26.1386
ltibia 22.2736
lfoot -15.101 6.87795
ltoes -28.1853
114
root 8.16859 15.3322 37.3556 -173.181 -1.44385 -178.992
lowerback 7.27865 -0.503302 -2.40007
upperback -4.12881 -0.932327 0.945465
thorax -8.40102 -0.316508 2.48869
lowerneck -3.59973 -2.11659 -4.48441
upperneck -0.0912958 -2.61717 7.67862
head 0.779904 -1.1879 3.20819
rclavicle 5.93248e-015 8.94531e-016
rhumerus -39.8315 7.73564 -89.8544
rradius 33.1455
rwrist 16.671
rhand -3.03696 -53.0148
rfingers 7.12502
rthumb 22.6785 -81.7023
lclavicle 5.93248e-015 8.94531e-016
lhumerus -39.993 -9.75259 93.7855
lradius 37.4777
lwrist -11.0285
lhand 1.20659 -32.9483
lfingers 7.12502
lthumb 26.7456 -4.81879
rfemur -23.6287 18.5308 22.904
rtibia 24.7341
rfoot -13.1576 -27.9662
rtoes 19.9881
lfemur 5.15462 -8.46471 -25.3769
ltibia 23.9823
lfoot -14.3531 5.70205
ltoes -27.4499
115
root 8.19389 15.3233 37.2409 -173.811 -1.32535 -178.827
lowerback 7.52628 -0.465372 -2.36999
upperback -3.94153 -0.869343 0.965211
thorax -8.34677 -0.284825 2.4849
lowerneck -3.70837 -2.10525 -4.51739
upperneck 0.364973 -2.62859 7.66887
head 0.946343 -1.18996 3.21063
rclavicle 5.07522e-015 -8.54774e-015
rhumerus -39.8188 8.04664 -90.0176
rradius 33.0437
rwrist 16.8868
rhand -3.10985 -52.9294
rfingers 7.12502
rthumb 22.6085 -81.6254
lclavicle 5.07522e-015 -8.54774e-015
lhumerus -40.1235 -9.68804 93.6102
lradius 36.7697
lwrist -13.1687
lhand -2.43515 -34.3521
lfingers 7.12502
lthumb 23.256 -5.73641
rfemur -22.2531 18.6937 23.6172
rtibia 24.4367
rfoot -13.0533 -28.283
rtoes 19.3996
lfemur 5.20802 -7.15208 -24.8522
ltibia 25.8031
lfoot -13.6198 4.45741
ltoes -25.9084
116
root 8.21781 15.3324 37.1563 -173.48 -1.68323 -178.808
lowerback 7.40328 -0.586308 -2.2881
upperback -4.12929 -1.03176 0.964683
thorax -8.46953 -0.369078 2.46275
lowerneck -3.76681 -2.10432 -4.81412
upperneck 0.734512 -2.63881 7.90418
head 1.0871 -1.1892 3.34911
rclavicle -2.23633e-016 -1.05356e-014
rhumerus -39.8251 8.78413 -90.3149
rradius 33.0546
rwrist 16.5627
rhand -2.87365 -53.3799
rfingers 7.12502
rthumb 22.8352 -82.0481
lclavicle -2.23633e-016 -1.05356e-014
lhumerus -39.9851 -9.38691 93.3477
lradius 36.457
lwrist -13.4255
lhand -2.13989 -34.6321
lfingers 7.12502
lthumb 23.5392 -6.05254
rfemur -22.0861 18.2087 23.8431
rtibia 24.1312
rfoot -12.8465 -28.15
rtoes 19.9793
lfemur 3.88296 -6.08888 -24.1861
ltibia 27.7872
lfoot -12.3421 3.07148
ltoes -23.2407
